<svg xmlns="http://www.w3.org/2000/svg" viewBox="0 0 1240 780" width="1240" height="780">
  <defs>
    <marker id="arrowA" markerWidth="10" markerHeight="7" refX="9" refY="3.5" orient="auto">
      <polygon points="0 0, 10 3.5, 0 7" fill="#10a37f"/>
    </marker>
    <marker id="arrowB" markerWidth="10" markerHeight="7" refX="9" refY="3.5" orient="auto">
      <polygon points="0 0, 10 3.5, 0 7" fill="#0f766e"/>
    </marker>
    <marker id="arrowC" markerWidth="10" markerHeight="7" refX="9" refY="3.5" orient="auto">
      <polygon points="0 0, 10 3.5, 0 7" fill="#0891b2"/>
    </marker>
    <marker id="arrowE" markerWidth="10" markerHeight="7" refX="9" refY="3.5" orient="auto">
      <polygon points="0 0, 10 3.5, 0 7" fill="#f59e0b"/>
    </marker>
    <marker id="arrowF" markerWidth="10" markerHeight="7" refX="9" refY="3.5" orient="auto">
      <polygon points="0 0, 10 3.5, 0 7" fill="#64748b"/>
    </marker>
    <marker id="arrowG" markerWidth="10" markerHeight="7" refX="9" refY="3.5" orient="auto">
      <polygon points="0 0, 10 3.5, 0 7" fill="#10a37f"/>
    </marker>
    <marker id="arrowH" markerWidth="10" markerHeight="7" refX="9" refY="3.5" orient="auto">
      <polygon points="0 0, 10 3.5, 0 7" fill="#94a3b8"/>
    </marker>
    <style>
    text { font-family: 'Helvetica Neue', Helvetica, Arial, 'PingFang SC', 'Microsoft YaHei', sans-serif; }
    .title { font-size: 24px; font-weight: 700; fill: #0f172a; }
    .subtitle { font-size: 13px; font-weight: 500; fill: #64748b; }
    .section { font-size: 13px; font-weight: 700; fill: #10a37f; letter-spacing: 1.4px; }
    .section-sub { font-size: 12px; font-weight: 500; fill: #94a3b8; }
    .node-title { font-size: 18px; font-weight: 700; fill: #0f172a; }
    .node-sub { font-size: 12px; font-weight: 500; fill: #475569; }
    .node-type { font-size: 11px; font-weight: 700; fill: #94a3b8; letter-spacing: 0.08em; }
    .arrow-label { font-size: 12px; font-weight: 600; fill: #475569; }
    .legend { font-size: 12px; font-weight: 500; fill: #475569; }
    .footnote { font-size: 12px; font-weight: 500; fill: #94a3b8; }
    </style>
  </defs>
  <rect width="1240.0" height="780.0" fill="#ffffff"/>
  <text x="620.0" y="56" text-anchor="middle" class="title">workflow_mode 分叉口径</text>
  <text x="620.0" y="82" text-anchor="middle" class="subtitle">默认 external；只有显式设置 manual / internal，前端才走内部提交与驳回链路</text>
  <rect x="40.0" y="118.0" width="1160.0" height="104.0" rx="16.0" fill="none" stroke="#e2e8f0" stroke-width="1.4" stroke-dasharray="5 4"/>
  <text x="58.0" y="142.0" class="section">BOOTSTRAP</text>
  <rect x="40.0" y="270.0" width="560.0" height="420.0" rx="16.0" fill="none" stroke="#e2e8f0" stroke-width="1.4" stroke-dasharray="5 4"/>
  <text x="58.0" y="294.0" class="section">EXTERNAL DEFAULT</text>
  <rect x="640.0" y="270.0" width="560.0" height="420.0" rx="16.0" fill="none" stroke="#e2e8f0" stroke-width="1.4" stroke-dasharray="5 4"/>
  <text x="658.0" y="294.0" class="section">MANUAL / INTERNAL</text>
  <path d="M 270.0,175.0 L 330.0,175.0" fill="none" stroke="#10a37f" stroke-width="2.0" marker-end="url(#arrowA)"/>
  <path d="M 550.0,175.0 L 610.0,175.0" fill="none" stroke="#0891b2" stroke-width="2.0" marker-end="url(#arrowC)"/>
  <path d="M 830.0,175.0 L 900.0,175.0" fill="none" stroke="#0891b2" stroke-width="2.0" marker-end="url(#arrowC)"/>
  <path d="M 1020.0,212.0 L 1020.0,240.0 L 320.0,240.0 L 320.0,308.0" fill="none" stroke="#10a37f" stroke-width="2.0" marker-end="url(#arrowA)"/>
  <path d="M 1020.0,212.0 L 1020.0,240.0 L 920.0,240.0 L 920.0,308.0" fill="none" stroke="#64748b" stroke-width="2.0" marker-end="url(#arrowF)" stroke-dasharray="6,4"/>
  <path d="M 320.0,376.0 L 320.0,396.4 L 185.0,409.6 L 185.0,430.0" fill="none" stroke="#10a37f" stroke-width="2.0" marker-end="url(#arrowA)"/>
  <path d="M 185.0,490.0 L 185.0,510.4 L 190.0,510.4 L 190.0,520.0" fill="none" stroke="#10a37f" stroke-width="2.0" marker-end="url(#arrowA)"/>
  <path d="M 190.0,580.0 L 190.0,610.0" fill="none" stroke="#64748b" stroke-width="2.0" marker-end="url(#arrowF)" stroke-dasharray="6,4"/>
  <path d="M 320.0,376.0 L 430.0,400.0 L 445.0,400.0 L 445.0,430.0" fill="none" stroke="#10a37f" stroke-width="2.0" marker-end="url(#arrowA)"/>
  <path d="M 445.0,490.0 L 445.0,510.4 L 440.0,510.4 L 440.0,520.0" fill="none" stroke="#0891b2" stroke-width="2.0" marker-end="url(#arrowC)"/>
  <path d="M 440.0,580.0 L 440.0,610.0" fill="none" stroke="#64748b" stroke-width="2.0" marker-end="url(#arrowF)" stroke-dasharray="6,4"/>
  <path d="M 920.0,376.0 L 820.0,400.0 L 785.0,400.0 L 785.0,430.0" fill="none" stroke="#10a37f" stroke-width="2.0" marker-end="url(#arrowA)"/>
  <path d="M 785.0,490.0 L 785.0,510.4 L 790.0,510.4 L 790.0,520.0" fill="none" stroke="#10a37f" stroke-width="2.0" marker-end="url(#arrowA)"/>
  <path d="M 900.0,550.0 L 910.0,550.0 L 910.0,460.0 L 940.0,460.0" fill="none" stroke="#10a37f" stroke-width="2.0" marker-end="url(#arrowA)"/>
  <path d="M 920.0,376.0 L 1020.0,400.0 L 1050.0,400.0 L 1050.0,430.0" fill="none" stroke="#10a37f" stroke-width="2.0" marker-end="url(#arrowA)"/>
  <path d="M 1050.0,490.0 L 1050.0,520.0" fill="none" stroke="#10a37f" stroke-width="2.0" marker-end="url(#arrowA)"/>
  <path d="M 1050.0,580.0 L 1050.0,610.0" fill="none" stroke="#10a37f" stroke-width="2.0" marker-end="url(#arrowA)"/>
  <rect x="70.0" y="144.0" width="200.0" height="62.0" rx="14.0" fill="#ffffff" stroke="#dce5e3" stroke-width="1.8"/>
  <text x="170.0" y="162.0" text-anchor="middle" class="node-type">ENTRY</text>
  <text x="170.0" y="181.0" text-anchor="middle" class="node-title">进入嵌入页</text>
  <text x="170.0" y="203.0" text-anchor="middle" class="node-sub">iframe / 新标签</text>
  <rect x="330.0" y="144.0" width="220.0" height="62.0" rx="14.0" fill="#ffffff" stroke="#dce5e3" stroke-width="1.8"/>
  <text x="440.0" y="162.0" text-anchor="middle" class="node-type">BOOT</text>
  <text x="440.0" y="181.0" text-anchor="middle" class="node-title">读取 query / session</text>
  <text x="440.0" y="203.0" text-anchor="middle" class="node-sub">user_token / form_id</text>
  <rect x="610.0" y="144.0" width="220.0" height="62.0" rx="14.0" fill="#ffffff" stroke="#dce5e3" stroke-width="1.8"/>
  <text x="720.0" y="162.0" text-anchor="middle" class="node-type">VERIFY</text>
  <text x="720.0" y="181.0" text-anchor="middle" class="node-title">authVerifyToken</text>
  <text x="720.0" y="203.0" text-anchor="middle" class="node-sub">claims.projectId role</text>
  <path d="M 922.0 138.0 L 1118.0 138.0 L 1140.0 175.0 L 1118.0 212.0 L 922.0 212.0 L 900.0 175.0 Z" fill="#ffffff" stroke="#dce5e3" stroke-width="2.0"/>
  <text x="1020.0" y="156.0" text-anchor="middle" class="node-type">MODE</text>
  <text x="1020.0" y="181.0" text-anchor="middle" class="node-title">resolveWorkflowMode</text>
  <text x="1020.0" y="203.0" text-anchor="middle" class="node-sub">default = external</text>
  <path d="M 222.0 308.0 L 418.0 308.0 L 440.0 342.0 L 418.0 376.0 L 222.0 376.0 L 200.0 342.0 Z" fill="#ffffff" stroke="#dce5e3" stroke-width="2.0"/>
  <text x="320.0" y="326.0" text-anchor="middle" class="node-type">DEFAULT</text>
  <text x="320.0" y="348.0" text-anchor="middle" class="node-title">workflow = external</text>
  <text x="320.0" y="370.0" text-anchor="middle" class="node-sub">生产默认</text>
  <rect x="80.0" y="430.0" width="210.0" height="60.0" rx="14.0" fill="#ffffff" stroke="#dce5e3" stroke-width="1.8"/>
  <text x="185.0" y="448.0" text-anchor="middle" class="node-type">DESIGNER</text>
  <text x="185.0" y="466.0" text-anchor="middle" class="node-title">sj -&gt; InitiateReview</text>
  <text x="185.0" y="488.0" text-anchor="middle" class="node-sub">设计侧工作区</text>
  <rect x="80.0" y="520.0" width="220.0" height="60.0" rx="14.0" fill="#ffffff" stroke="#dce5e3" stroke-width="1.8"/>
  <text x="190.0" y="538.0" text-anchor="middle" class="node-type">FORM</text>
  <text x="190.0" y="556.0" text-anchor="middle" class="node-title">createReviewTask 保存</text>
  <text x="190.0" y="578.0" text-anchor="middle" class="node-sub">只落地 form_id 数据</text>
  <rect x="80.0" y="610.0" width="220.0" height="60.0" rx="14.0" fill="#ffffff" stroke="#dce5e3" stroke-width="1.8"/>
  <text x="190.0" y="628.0" text-anchor="middle" class="node-type">SYNC</text>
  <text x="190.0" y="646.0" text-anchor="middle" class="node-title">等待 PMS active</text>
  <text x="190.0" y="668.0" text-anchor="middle" class="node-sub">前端不直接 submit</text>
  <rect x="340.0" y="430.0" width="210.0" height="60.0" rx="14.0" fill="#ffffff" stroke="#dce5e3" stroke-width="1.8"/>
  <text x="445.0" y="448.0" text-anchor="middle" class="node-type">REVIEWER</text>
  <text x="445.0" y="466.0" text-anchor="middle" class="node-title">reviewer -&gt; ReviewPanel</text>
  <text x="445.0" y="488.0" text-anchor="middle" class="node-sub">审核侧工作区</text>
  <rect x="330.0" y="520.0" width="220.0" height="60.0" rx="14.0" fill="#ffffff" stroke="#dce5e3" stroke-width="1.8"/>
  <text x="440.0" y="538.0" text-anchor="middle" class="node-type">RESTORE</text>
  <text x="440.0" y="556.0" text-anchor="middle" class="node-title">form_id + query 恢复</text>
  <text x="440.0" y="578.0" text-anchor="middle" class="node-sub">tasks + snapshot + 附件</text>
  <rect x="330.0" y="610.0" width="220.0" height="60.0" rx="14.0" fill="#ffffff" stroke="#dce5e3" stroke-width="1.8"/>
  <text x="440.0" y="628.0" text-anchor="middle" class="node-type">SYNC</text>
  <text x="440.0" y="646.0" text-anchor="middle" class="node-title">等待 agree / return / stop</text>
  <text x="440.0" y="668.0" text-anchor="middle" class="node-sub">真实动作仍由 PMS 推进</text>
  <path d="M 822.0 308.0 L 1018.0 308.0 L 1040.0 342.0 L 1018.0 376.0 L 822.0 376.0 L 800.0 342.0 Z" fill="#ffffff" stroke="#dce5e3" stroke-width="2.0"/>
  <text x="920.0" y="326.0" text-anchor="middle" class="node-type">OPT-IN</text>
  <text x="920.0" y="348.0" text-anchor="middle" class="node-title">workflow = manual</text>
  <text x="920.0" y="370.0" text-anchor="middle" class="node-sub">或 internal</text>
  <rect x="680.0" y="430.0" width="210.0" height="60.0" rx="14.0" fill="#ffffff" stroke="#dce5e3" stroke-width="1.8"/>
  <text x="785.0" y="448.0" text-anchor="middle" class="node-type">DESIGNER</text>
  <text x="785.0" y="466.0" text-anchor="middle" class="node-title">sj -&gt; InitiateReview</text>
  <text x="785.0" y="488.0" text-anchor="middle" class="node-sub">显示校核人 / 批准人</text>
  <rect x="680.0" y="520.0" width="220.0" height="60.0" rx="14.0" fill="#ffffff" stroke="#dce5e3" stroke-width="1.8"/>
  <text x="790.0" y="538.0" text-anchor="middle" class="node-type">INTERNAL</text>
  <text x="790.0" y="556.0" text-anchor="middle" class="node-title">submitTaskToNextNode</text>
  <text x="790.0" y="578.0" text-anchor="middle" class="node-sub">保存后推进下一节点</text>
  <rect x="940.0" y="430.0" width="220.0" height="60.0" rx="14.0" fill="#ffffff" stroke="#dce5e3" stroke-width="1.8"/>
  <text x="1050.0" y="448.0" text-anchor="middle" class="node-type">QUEUE</text>
  <text x="1050.0" y="466.0" text-anchor="middle" class="node-title">ReviewerTaskList</text>
  <text x="1050.0" y="488.0" text-anchor="middle" class="node-sub">待办列表仍参与流转</text>
  <rect x="940.0" y="520.0" width="220.0" height="60.0" rx="14.0" fill="#ffffff" stroke="#dce5e3" stroke-width="1.8"/>
  <text x="1050.0" y="538.0" text-anchor="middle" class="node-type">ACTION</text>
  <text x="1050.0" y="556.0" text-anchor="middle" class="node-title">ReviewPanel 内部提交</text>
  <text x="1050.0" y="578.0" text-anchor="middle" class="node-sub">confirm / submit</text>
  <rect x="940.0" y="610.0" width="220.0" height="60.0" rx="14.0" fill="#ffffff" stroke="#dce5e3" stroke-width="1.8"/>
  <text x="1050.0" y="628.0" text-anchor="middle" class="node-type">INTERNAL</text>
  <text x="1050.0" y="646.0" text-anchor="middle" class="node-title">returnTaskToNode</text>
  <text x="1050.0" y="668.0" text-anchor="middle" class="node-sub">驳回到上游节点</text>
  <rect x="258.0" y="161.0" width="84" height="20" rx="6" fill="#ffffff" opacity="0.96"/>
  <text x="300.0" y="175.0" text-anchor="middle" class="arrow-label">url params</text>
  <rect x="538.0" y="161.0" width="84" height="20" rx="6" fill="#ffffff" opacity="0.96"/>
  <text x="580.0" y="175.0" text-anchor="middle" class="arrow-label">user_token</text>
  <rect x="837.0" y="177.0" width="56" height="20" rx="6" fill="#ffffff" opacity="0.96"/>
  <text x="865.0" y="191.0" text-anchor="middle" class="arrow-label">claims</text>
  <rect x="652.0" y="210.0" width="36" height="20" rx="6" fill="#ffffff" opacity="0.96"/>
  <text x="670.0" y="224.0" text-anchor="middle" class="arrow-label">默认</text>
  <rect x="931.5" y="242.0" width="77" height="20" rx="6" fill="#ffffff" opacity="0.96"/>
  <text x="970.0" y="256.0" text-anchor="middle" class="arrow-label">显式 manual</text>
  <rect x="234.5" y="389.0" width="36" height="20" rx="6" fill="#ffffff" opacity="0.96"/>
  <text x="252.5" y="403.0" text-anchor="middle" class="arrow-label">sj</text>
  <rect x="167.0" y="486.2" width="36" height="20" rx="6" fill="#ffffff" opacity="0.96"/>
  <text x="185.0" y="500.2" text-anchor="middle" class="arrow-label">保存</text>
  <rect x="172.0" y="581.0" width="36" height="20" rx="6" fill="#ffffff" opacity="0.96"/>
  <text x="190.0" y="595.0" text-anchor="middle" class="arrow-label">不闭环</text>
  <rect x="340.0" y="390.0" width="70" height="20" rx="6" fill="#ffffff" opacity="0.96"/>
  <text x="375.0" y="404.0" text-anchor="middle" class="arrow-label">reviewer</text>
  <rect x="413.5" y="486.2" width="63" height="20" rx="6" fill="#ffffff" opacity="0.96"/>
  <text x="445.0" y="500.2" text-anchor="middle" class="arrow-label">restore</text>
  <rect x="412.0" y="581.0" width="56" height="20" rx="6" fill="#ffffff" opacity="0.96"/>
  <text x="440.0" y="595.0" text-anchor="middle" class="arrow-label">PMS 推进</text>
  <rect x="852.0" y="390.0" width="36" height="20" rx="6" fill="#ffffff" opacity="0.96"/>
  <text x="870.0" y="404.0" text-anchor="middle" class="arrow-label">sj</text>
  <rect x="767.0" y="486.2" width="36" height="20" rx="6" fill="#ffffff" opacity="0.96"/>
  <text x="785.0" y="500.2" text-anchor="middle" class="arrow-label">保存后</text>
  <rect x="871.0" y="491.0" width="42" height="20" rx="6" fill="#ffffff" opacity="0.96"/>
  <text x="892.0" y="505.0" text-anchor="middle" class="arrow-label">下一节点</text>
  <rect x="935.0" y="390.0" width="70" height="20" rx="6" fill="#ffffff" opacity="0.96"/>
  <text x="970.0" y="404.0" text-anchor="middle" class="arrow-label">reviewer</text>
  <rect x="1004.5" y="491.0" width="91" height="20" rx="6" fill="#ffffff" opacity="0.96"/>
  <text x="1050.0" y="505.0" text-anchor="middle" class="arrow-label">startReview</text>
  <rect x="1018.5" y="581.0" width="63" height="20" rx="6" fill="#ffffff" opacity="0.96"/>
  <text x="1050.0" y="595.0" text-anchor="middle" class="arrow-label">驳回 / 提交</text>
  <rect x="32.0" y="710.0" width="282" height="90" rx="10" fill="#ffffff" opacity="0.88"/>
  <line x1="42.0" y1="724.0" x2="72.0" y2="724.0" stroke="#10a37f" stroke-width="2.0" marker-end="url(#arrowA)"/>
  <text x="82.0" y="728.0" class="legend">前端内部主链路</text>
  <line x1="42.0" y1="746.0" x2="72.0" y2="746.0" stroke="#0891b2" stroke-width="2.0" marker-end="url(#arrowC)"/>
  <text x="82.0" y="750.0" class="legend">读取 token / claims / restore 数据</text>
  <line x1="42.0" y1="768.0" x2="72.0" y2="768.0" stroke="#64748b" stroke-width="2.0" marker-end="url(#arrowF)"/>
  <text x="82.0" y="772.0" class="legend">external 默认下交还 PMS 推进</text>
</svg>