<svg xmlns="http://www.w3.org/2000/svg" viewBox="0 0 1280 860" width="1280" height="860">
  <defs>
    <marker id="arrowA" markerWidth="10" markerHeight="7" refX="9" refY="3.5" orient="auto">
      <polygon points="0 0, 10 3.5, 0 7" fill="#10a37f"/>
    </marker>
    <marker id="arrowB" markerWidth="10" markerHeight="7" refX="9" refY="3.5" orient="auto">
      <polygon points="0 0, 10 3.5, 0 7" fill="#0f766e"/>
    </marker>
    <marker id="arrowC" markerWidth="10" markerHeight="7" refX="9" refY="3.5" orient="auto">
      <polygon points="0 0, 10 3.5, 0 7" fill="#0891b2"/>
    </marker>
    <marker id="arrowE" markerWidth="10" markerHeight="7" refX="9" refY="3.5" orient="auto">
      <polygon points="0 0, 10 3.5, 0 7" fill="#f59e0b"/>
    </marker>
    <marker id="arrowF" markerWidth="10" markerHeight="7" refX="9" refY="3.5" orient="auto">
      <polygon points="0 0, 10 3.5, 0 7" fill="#64748b"/>
    </marker>
    <marker id="arrowG" markerWidth="10" markerHeight="7" refX="9" refY="3.5" orient="auto">
      <polygon points="0 0, 10 3.5, 0 7" fill="#10a37f"/>
    </marker>
    <marker id="arrowH" markerWidth="10" markerHeight="7" refX="9" refY="3.5" orient="auto">
      <polygon points="0 0, 10 3.5, 0 7" fill="#94a3b8"/>
    </marker>
    <style>
    text { font-family: 'Helvetica Neue', Helvetica, Arial, 'PingFang SC', 'Microsoft YaHei', sans-serif; }
    .title { font-size: 24px; font-weight: 700; fill: #0f172a; }
    .subtitle { font-size: 13px; font-weight: 500; fill: #64748b; }
    .section { font-size: 13px; font-weight: 700; fill: #10a37f; letter-spacing: 1.4px; }
    .section-sub { font-size: 12px; font-weight: 500; fill: #94a3b8; }
    .node-title { font-size: 18px; font-weight: 700; fill: #0f172a; }
    .node-sub { font-size: 12px; font-weight: 500; fill: #475569; }
    .node-type { font-size: 11px; font-weight: 700; fill: #94a3b8; letter-spacing: 0.08em; }
    .arrow-label { font-size: 12px; font-weight: 600; fill: #475569; }
    .legend { font-size: 12px; font-weight: 500; fill: #475569; }
    .footnote { font-size: 12px; font-weight: 500; fill: #94a3b8; }
    </style>
  </defs>
  <rect width="1280.0" height="860.0" fill="#ffffff"/>
  <text x="640.0" y="56" text-anchor="middle" class="title">三维校审当前默认主链路</text>
  <text x="640.0" y="82" text-anchor="middle" class="subtitle">external / passive 生产口径：外部平台推进 workflow，前端负责嵌入、保存镜像与恢复工作台</text>
  <rect x="40.0" y="118.0" width="1200.0" height="104.0" rx="16.0" fill="none" stroke="#e2e8f0" stroke-width="1.4" stroke-dasharray="5 4"/>
  <text x="58.0" y="142.0" class="section">ENTRY</text>
  <rect x="40.0" y="252.0" width="1200.0" height="138.0" rx="16.0" fill="none" stroke="#e2e8f0" stroke-width="1.4" stroke-dasharray="5 4"/>
  <text x="58.0" y="276.0" class="section">DESIGN SAVE</text>
  <rect x="40.0" y="420.0" width="1200.0" height="154.0" rx="16.0" fill="none" stroke="#e2e8f0" stroke-width="1.4" stroke-dasharray="5 4"/>
  <text x="58.0" y="444.0" class="section">REVIEW RESTORE</text>
  <rect x="40.0" y="604.0" width="1200.0" height="124.0" rx="16.0" fill="none" stroke="#e2e8f0" stroke-width="1.4" stroke-dasharray="5 4"/>
  <text x="58.0" y="628.0" class="section">EXTERNAL TRANSITION</text>
  <path d="M 280.0,175.0 L 330.0,175.0" fill="none" stroke="#10a37f" stroke-width="2.0" marker-end="url(#arrowA)"/>
  <path d="M 560.0,175.0 L 620.0,175.0" fill="none" stroke="#0891b2" stroke-width="2.0" marker-end="url(#arrowC)"/>
  <path d="M 820.0,175.0 L 930.0,175.0" fill="none" stroke="#0891b2" stroke-width="2.0" marker-end="url(#arrowC)"/>
  <path d="M 1050.0,212.0 L 1050.0,230.0 L 460.0,230.0 L 460.0,278.0" fill="none" stroke="#64748b" stroke-width="2.0" marker-end="url(#arrowF)" stroke-dasharray="6,4"/>
  <path d="M 1050.0,212.0 L 1050.0,388.0 L 1065.0,388.0 L 1065.0,450.0" fill="none" stroke="#64748b" stroke-width="2.0" marker-end="url(#arrowF)" stroke-dasharray="6,4"/>
  <path d="M 280.0,315.0 L 330.0,315.0" fill="none" stroke="#0891b2" stroke-width="2.0" marker-end="url(#arrowC)"/>
  <path d="M 590.0,315.0 L 610.4,315.0 L 639.6,317.0 L 660.0,317.0" fill="none" stroke="#10a37f" stroke-width="2.0" marker-end="url(#arrowA)"/>
  <path d="M 880.0,317.0 L 940.0,317.0" fill="none" stroke="#0f766e" stroke-width="2.0" marker-end="url(#arrowB)" stroke-dasharray="6,4"/>
  <path d="M 330.0,493.0 L 350.4,493.0 L 369.6,487.0 L 390.0,487.0" fill="none" stroke="#0891b2" stroke-width="2.0" marker-end="url(#arrowC)"/>
  <path d="M 610.0,487.0 L 690.0,487.0" fill="none" stroke="#10a37f" stroke-width="2.0" marker-end="url(#arrowA)"/>
  <path d="M 910.0,487.0 L 960.0,487.0" fill="none" stroke="#0891b2" stroke-width="2.0" marker-end="url(#arrowC)"/>
  <path d="M 1055.0,348.0 L 1055.0,670.0 L 265.0,670.0 L 265.0,638.0" fill="none" stroke="#64748b" stroke-width="2.0" marker-end="url(#arrowF)" stroke-dasharray="6,4"/>
  <path d="M 390.0,669.0 L 500.0,669.0" fill="none" stroke="#10a37f" stroke-width="2.0" marker-end="url(#arrowA)"/>
  <path d="M 760.0,669.0 L 890.0,669.0" fill="none" stroke="#10a37f" stroke-width="2.0" marker-end="url(#arrowA)"/>
  <path d="M 1065.0,524.0 L 1065.0,638.0 L 1030.0,638.0" fill="none" stroke="#10a37f" stroke-width="2.0" marker-end="url(#arrowA)" stroke-dasharray="6,4"/>
  <path d="M 92.0 144.0 L 258.0 144.0 L 280.0 175.0 L 258.0 206.0 L 92.0 206.0 L 70.0 175.0 Z" fill="#ffffff" stroke="#dce5e3" stroke-width="2.0"/>
  <text x="175.0" y="162.0" text-anchor="middle" class="node-type">ENTRY</text>
  <text x="175.0" y="181.0" text-anchor="middle" class="node-title">PowerPMS 打开单据</text>
  <rect x="330.0" y="144.0" width="230.0" height="62.0" rx="14.0" fill="#ffffff" stroke="#dce5e3" stroke-width="1.8"/>
  <text x="445.0" y="162.0" text-anchor="middle" class="node-type">CONTRACT</text>
  <text x="445.0" y="181.0" text-anchor="middle" class="node-title">embed-url 合同</text>
  <text x="445.0" y="203.0" text-anchor="middle" class="node-sub">user_token + form_id</text>
  <rect x="620.0" y="144.0" width="200.0" height="62.0" rx="14.0" fill="#ffffff" stroke="#dce5e3" stroke-width="1.8"/>
  <text x="720.0" y="162.0" text-anchor="middle" class="node-type">VERIFY</text>
  <text x="720.0" y="181.0" text-anchor="middle" class="node-title">authVerifyToken</text>
  <text x="720.0" y="203.0" text-anchor="middle" class="node-sub">claims(project role)</text>
  <rect x="930.0" y="138.0" width="240.0" height="74.0" rx="14.0" fill="#ffffff" stroke="#dce5e3" stroke-width="2.0"/>
  <rect x="936.0" y="144.0" width="228.0" height="62.0" rx="11.0" fill="none" stroke="#dce5e3" stroke-width="1.2" opacity="0.65"/>
  <text x="1050.0" y="156.0" text-anchor="middle" class="node-type">P3D</text>
  <text x="1050.0" y="181.0" text-anchor="middle" class="node-title">DockLayout 落点</text>
  <text x="1050.0" y="203.0" text-anchor="middle" class="node-sub">可信身份 + role landing</text>
  <rect x="90.0" y="286.0" width="190.0" height="58.0" rx="14.0" fill="#ffffff" stroke="#dce5e3" stroke-width="2.0"/>
  <circle cx="116.0" cy="315.0" r="18" fill="#dbeafe" stroke="#dce5e3" stroke-width="1.6"/>
  <circle cx="116.0" cy="309.0" r="5" fill="#dce5e3"/>
  <path d="M 106.0 326.0 Q 116.0 317.0 126.0 326.0" fill="none" stroke="#dce5e3" stroke-width="2"/>
  <text x="154.0" y="321.0" text-anchor="start" class="node-title">sj 设计角色</text>
  <rect x="330.0" y="278.0" width="260.0" height="74.0" rx="14.0" fill="#ffffff" stroke="#dce5e3" stroke-width="2.0"/>
  <rect x="336.0" y="284.0" width="248.0" height="62.0" rx="11.0" fill="none" stroke="#dce5e3" stroke-width="1.2" opacity="0.65"/>
  <text x="460.0" y="296.0" text-anchor="middle" class="node-type">WORKBENCH</text>
  <text x="460.0" y="321.0" text-anchor="middle" class="node-title">InitiateReviewPanel</text>
  <text x="460.0" y="343.0" text-anchor="middle" class="node-sub">构件、包名、附件</text>
  <rect x="660.0" y="286.0" width="220.0" height="62.0" rx="14.0" fill="#ffffff" stroke="#dce5e3" stroke-width="1.8"/>
  <text x="770.0" y="304.0" text-anchor="middle" class="node-type">API</text>
  <text x="770.0" y="323.0" text-anchor="middle" class="node-title">createReviewTask</text>
  <text x="770.0" y="345.0" text-anchor="middle" class="node-sub">POST /api/review/tasks</text>
  <rect x="940.0" y="286.0" width="230.0" height="62.0" rx="14.0" fill="#ffffff" stroke="#dce5e3" stroke-width="1.8"/>
  <text x="1055.0" y="304.0" text-anchor="middle" class="node-type">FORM</text>
  <text x="1055.0" y="323.0" text-anchor="middle" class="node-title">内部镜像任务</text>
  <text x="1055.0" y="345.0" text-anchor="middle" class="node-sub">form_id 绑定数据</text>
  <rect x="90.0" y="464.0" width="240.0" height="58.0" rx="14.0" fill="#ffffff" stroke="#dce5e3" stroke-width="2.0"/>
  <circle cx="116.0" cy="493.0" r="18" fill="#dbeafe" stroke="#dce5e3" stroke-width="1.6"/>
  <circle cx="116.0" cy="487.0" r="5" fill="#dce5e3"/>
  <path d="M 106.0 504.0 Q 116.0 495.0 126.0 504.0" fill="none" stroke="#dce5e3" stroke-width="2"/>
  <text x="154.0" y="499.0" text-anchor="start" class="node-title">jd / jh / sh / pz</text>
  <rect x="390.0" y="456.0" width="220.0" height="62.0" rx="14.0" fill="#ffffff" stroke="#dce5e3" stroke-width="1.8"/>
  <text x="500.0" y="474.0" text-anchor="middle" class="node-type">CONTEXT</text>
  <text x="500.0" y="493.0" text-anchor="middle" class="node-title">按 form_id 匹配</text>
  <text x="500.0" y="515.0" text-anchor="middle" class="node-sub">restoreEmbedWorkbenchContext</text>
  <rect x="690.0" y="456.0" width="220.0" height="62.0" rx="14.0" fill="#ffffff" stroke="#dce5e3" stroke-width="1.8"/>
  <text x="800.0" y="474.0" text-anchor="middle" class="node-type">SYNC</text>
  <text x="800.0" y="493.0" text-anchor="middle" class="node-title">workflow/sync query</text>
  <text x="800.0" y="515.0" text-anchor="middle" class="node-sub">snapshot + attachments</text>
  <rect x="960.0" y="450.0" width="210.0" height="74.0" rx="14.0" fill="#ffffff" stroke="#dce5e3" stroke-width="2.0"/>
  <rect x="966.0" y="456.0" width="198.0" height="62.0" rx="11.0" fill="none" stroke="#dce5e3" stroke-width="1.2" opacity="0.65"/>
  <text x="1065.0" y="468.0" text-anchor="middle" class="node-type">PASSIVE</text>
  <text x="1065.0" y="493.0" text-anchor="middle" class="node-title">ReviewPanel</text>
  <text x="1065.0" y="515.0" text-anchor="middle" class="node-sub">恢复模型、批注、附件</text>
  <path d="M 162.0 638.0 L 368.0 638.0 L 390.0 669.0 L 368.0 700.0 L 162.0 700.0 L 140.0 669.0 Z" fill="#ffffff" stroke="#dce5e3" stroke-width="2.0"/>
  <text x="265.0" y="656.0" text-anchor="middle" class="node-type">WORKFLOW</text>
  <text x="265.0" y="675.0" text-anchor="middle" class="node-title">PMS 发动作</text>
  <text x="265.0" y="697.0" text-anchor="middle" class="node-sub">active / agree / return / stop</text>
  <rect x="500.0" y="638.0" width="260.0" height="62.0" rx="14.0" fill="#ffffff" stroke="#dce5e3" stroke-width="1.8"/>
  <text x="630.0" y="656.0" text-anchor="middle" class="node-type">BACKEND</text>
  <text x="630.0" y="675.0" text-anchor="middle" class="node-title">workflow/sync 驱动状态</text>
  <text x="630.0" y="697.0" text-anchor="middle" class="node-sub">真实流转不在前端闭环</text>
  <rect x="890.0" y="638.0" width="280.0" height="62.0" rx="14.0" fill="#ffffff" stroke="#dce5e3" stroke-width="1.8"/>
  <text x="1030.0" y="656.0" text-anchor="middle" class="node-type">PASSIVE</text>
  <text x="1030.0" y="675.0" text-anchor="middle" class="node-title">前端默认只展示</text>
  <text x="1030.0" y="697.0" text-anchor="middle" class="node-sub">辅助校审，不直接推进审批</text>
  <rect x="245.5" y="161.0" width="119" height="20" rx="6" fill="#ffffff" opacity="0.96"/>
  <text x="305.0" y="175.0" text-anchor="middle" class="arrow-label">POST /embed-url</text>
  <rect x="548.0" y="161.0" width="84" height="20" rx="6" fill="#ffffff" opacity="0.96"/>
  <text x="590.0" y="175.0" text-anchor="middle" class="arrow-label">user_token</text>
  <rect x="847.0" y="177.0" width="56" height="20" rx="6" fill="#ffffff" opacity="0.96"/>
  <text x="875.0" y="191.0" text-anchor="middle" class="arrow-label">claims</text>
  <rect x="720.0" y="216.0" width="70" height="20" rx="6" fill="#ffffff" opacity="0.96"/>
  <text x="755.0" y="230.0" text-anchor="middle" class="arrow-label">designer</text>
  <rect x="1015.0" y="286.0" width="70" height="20" rx="6" fill="#ffffff" opacity="0.96"/>
  <text x="1050.0" y="300.0" text-anchor="middle" class="arrow-label">reviewer</text>
  <rect x="284.0" y="317.0" width="42" height="20" rx="6" fill="#ffffff" opacity="0.96"/>
  <text x="305.0" y="331.0" text-anchor="middle" class="arrow-label">选择构件</text>
  <rect x="607.0" y="302.0" width="36" height="20" rx="6" fill="#ffffff" opacity="0.96"/>
  <text x="625.0" y="316.0" text-anchor="middle" class="arrow-label">保存</text>
  <rect x="878.5" y="303.0" width="63" height="20" rx="6" fill="#ffffff" opacity="0.96"/>
  <text x="910.0" y="317.0" text-anchor="middle" class="arrow-label">form_id</text>
  <rect x="339.0" y="476.0" width="42" height="20" rx="6" fill="#ffffff" opacity="0.96"/>
  <text x="360.0" y="490.0" text-anchor="middle" class="arrow-label">打开单据</text>
  <rect x="625.5" y="457.0" width="49" height="20" rx="6" fill="#ffffff" opacity="0.96"/>
  <text x="650.0" y="471.0" text-anchor="middle" class="arrow-label">query</text>
  <rect x="903.5" y="473.0" width="63" height="20" rx="6" fill="#ffffff" opacity="0.96"/>
  <text x="935.0" y="487.0" text-anchor="middle" class="arrow-label">records</text>
  <rect x="635.5" y="656.0" width="49" height="20" rx="6" fill="#ffffff" opacity="0.96"/>
  <text x="660.0" y="670.0" text-anchor="middle" class="arrow-label">回 PMS</text>
  <rect x="392.5" y="655.0" width="105" height="20" rx="6" fill="#ffffff" opacity="0.96"/>
  <text x="445.0" y="669.0" text-anchor="middle" class="arrow-label">workflow/sync</text>
  <rect x="804.0" y="671.0" width="42" height="20" rx="6" fill="#ffffff" opacity="0.96"/>
  <text x="825.0" y="685.0" text-anchor="middle" class="arrow-label">状态同步</text>
  <rect x="1026.0" y="567.0" width="42" height="20" rx="6" fill="#ffffff" opacity="0.96"/>
  <text x="1047.0" y="581.0" text-anchor="middle" class="arrow-label">辅助校审</text>
  <rect x="32.0" y="724.0" width="233" height="134" rx="10" fill="#ffffff" opacity="0.88"/>
  <line x1="42.0" y1="738.0" x2="72.0" y2="738.0" stroke="#10a37f" stroke-width="2.0" marker-end="url(#arrowA)"/>
  <text x="82.0" y="742.0" class="legend">外部平台或前端触发动作</text>
  <line x1="42.0" y1="760.0" x2="72.0" y2="760.0" stroke="#0891b2" stroke-width="2.0" marker-end="url(#arrowC)"/>
  <text x="82.0" y="764.0" class="legend">读取 token / 快照 / records</text>
  <line x1="42.0" y1="782.0" x2="72.0" y2="782.0" stroke="#0f766e" stroke-width="2.0" marker-end="url(#arrowB)"/>
  <text x="82.0" y="786.0" class="legend">写入 form_id 镜像任务</text>
  <line x1="42.0" y1="804.0" x2="72.0" y2="804.0" stroke="#64748b" stroke-width="2.0" marker-end="url(#arrowF)"/>
  <text x="82.0" y="808.0" class="legend">外部平台继续推进流程</text>
  <line x1="42.0" y1="826.0" x2="72.0" y2="826.0" stroke="#10a37f" stroke-width="2.0" marker-end="url(#arrowA)"/>
  <text x="82.0" y="830.0" class="legend">前端只做辅助校审展示</text>
</svg>